<svg width="1286" height="1431" viewBox="0 0 1286 1431" fill="none" xmlns="http://www.w3.org/2000/svg">
<g clip-path="url(#clip0_5_8)">
<rect width="1286" height="1431" fill="#EBEBEB"/>
<path d="M250 812C250 950.071 138.071 1062 0 1062C-138.071 1062 -250 950.071 -250 812C-250 673.929 -138.071 562 0 562C138.071 562 250 673.929 250 812Z" fill="#D9D9D9"/>
<path d="M1451 1381C1451 1545.03 1318.03 1678 1154 1678C989.971 1678 857 1545.03 857 1381C857 1216.97 989.971 1084 1154 1084C1318.03 1084 1451 1216.97 1451 1381Z" fill="#D9D9D9"/>
<path d="M1238 312C1238 450.071 1126.07 562 988 562C849.929 562 738 450.071 738 312C738 173.929 849.929 62 988 62C1126.07 62 1238 173.929 1238 312Z" fill="#D9D9D9"/>
</g>
<defs>
<clipPath id="clip0_5_8">
<rect width="1286" height="1431" fill="white"/>
</clipPath>
</defs>
</svg>
