<svg width="18" height="15" viewBox="0 0 18 15" fill="none" xmlns="http://www.w3.org/2000/svg">
<path d="M17.55 6.09375H15.75V4.21875C15.75 3.96094 15.5475 3.75 15.3 3.75H14.4C14.1525 3.75 13.95 3.96094 13.95 4.21875V6.09375H12.15C11.9025 6.09375 11.7 6.30469 11.7 6.5625V7.5C11.7 7.75781 11.9025 7.96875 12.15 7.96875H13.95V9.84375C13.95 10.1016 14.1525 10.3125 14.4 10.3125H15.3C15.5475 10.3125 15.75 10.1016 15.75 9.84375V7.96875H17.55C17.7975 7.96875 18 7.75781 18 7.5V6.5625C18 6.30469 17.7975 6.09375 17.55 6.09375ZM6.3 7.5C8.28844 7.5 9.9 5.82129 9.9 3.75C9.9 1.67871 8.28844 0 6.3 0C4.31156 0 2.7 1.67871 2.7 3.75C2.7 5.82129 4.31156 7.5 6.3 7.5ZM8.82 8.4375H8.35031C7.72594 8.73633 7.03125 8.90625 6.3 8.90625C5.56875 8.90625 4.87687 8.73633 4.24969 8.4375H3.78C1.69312 8.4375 0 10.2012 0 12.375V13.5938C0 14.3701 0.604688 15 1.35 15H11.25C11.9953 15 12.6 14.3701 12.6 13.5938V12.375C12.6 10.2012 10.9069 8.4375 8.82 8.4375Z" fill="white"/>
</svg>


