<svg width="33" height="33" viewBox="0 0 33 33" fill="none" xmlns="http://www.w3.org/2000/svg">
<circle cx="16.5" cy="16.5" r="16.5" fill="#4463D0"/>
<g clip-path="url(#clip0_13_78)">
<path fill-rule="evenodd" clip-rule="evenodd" d="M16.9231 6.76926C11.3131 6.76926 6.76923 11.3131 6.76923 16.9231C6.76923 21.4162 9.67576 25.2112 13.7119 26.5566C14.2196 26.6454 14.41 26.3408 14.41 26.0742C14.41 25.8331 14.3973 25.0335 14.3973 24.1831C11.8461 24.6527 11.1861 23.5612 10.9831 22.99C10.8688 22.6981 10.3738 21.7969 9.9423 21.5558C9.58692 21.3654 9.07923 20.8958 9.92961 20.8831C10.7292 20.8704 11.3004 21.6193 11.4908 21.9239C12.4046 23.4596 13.8642 23.0281 14.4481 22.7616C14.5369 22.1016 14.8035 21.6573 15.0954 21.4035C12.8361 21.1496 10.4754 20.2739 10.4754 16.39C10.4754 15.2858 10.8688 14.3719 11.5161 13.6612C11.4146 13.4073 11.0592 12.3666 11.6177 10.9704C11.6177 10.9704 12.4681 10.7039 14.41 12.0112C15.2223 11.7827 16.0854 11.6685 16.9485 11.6685C17.8115 11.6685 18.6746 11.7827 19.4869 12.0112C21.4288 10.6912 22.2792 10.9704 22.2792 10.9704C22.8377 12.3666 22.4823 13.4073 22.3808 13.6612C23.0281 14.3719 23.4215 15.2731 23.4215 16.39C23.4215 20.2866 21.0481 21.1496 18.7888 21.4035C19.1569 21.7208 19.4742 22.33 19.4742 23.2819C19.4742 24.64 19.4615 25.7316 19.4615 26.0742C19.4615 26.3408 19.6519 26.6581 20.1596 26.5566C22.1753 25.876 23.9268 24.5805 25.1677 22.8524C26.4086 21.1243 27.0763 19.0506 27.0769 16.9231C27.0769 11.3131 22.5331 6.76926 16.9231 6.76926Z" fill="white"/>
</g>
<defs>
<clipPath id="clip0_13_78">
<rect width="20.3077" height="20.3077" fill="white" transform="translate(6.76923 6.76926)"/>
</clipPath>
</defs>
</svg>
