<svg width="15" height="13" viewBox="0 0 15 13" fill="none" xmlns="http://www.w3.org/2000/svg">
<path d="M7.30133 3.76441L2.50002 7.61998V11.7813C2.50002 11.889 2.54392 11.9923 2.62206 12.0685C2.7002 12.1447 2.80618 12.1875 2.91669 12.1875L5.83492 12.1801C5.94507 12.1796 6.05051 12.1366 6.1282 12.0604C6.20589 11.9843 6.2495 11.8813 6.2495 11.7739V9.34375C6.2495 9.23601 6.2934 9.13268 6.37154 9.05649C6.44968 8.9803 6.55566 8.9375 6.66617 8.9375H8.33284C8.44334 8.9375 8.54932 8.9803 8.62746 9.05649C8.7056 9.13268 8.7495 9.23601 8.7495 9.34375V11.7721C8.74933 11.8256 8.75998 11.8785 8.78085 11.928C8.80171 11.9774 8.83237 12.0223 8.87108 12.0602C8.90979 12.0981 8.95578 12.1281 9.00642 12.1486C9.05705 12.1691 9.11134 12.1796 9.16617 12.1796L12.0834 12.1875C12.1939 12.1875 12.2998 12.1447 12.378 12.0685C12.4561 11.9923 12.5 11.889 12.5 11.7813V7.61719L7.69976 3.76441C7.64333 3.72006 7.57303 3.69588 7.50055 3.69588C7.42806 3.69588 7.35776 3.72006 7.30133 3.76441ZM14.8854 6.38498L12.7084 4.63531V1.11846C12.7084 1.03765 12.6754 0.960151 12.6168 0.903011C12.5582 0.845871 12.4787 0.81377 12.3959 0.81377H10.9375C10.8546 0.81377 10.7752 0.845871 10.7166 0.903011C10.6579 0.960151 10.625 1.03765 10.625 1.11846V2.96207L8.29351 1.0918C8.06977 0.912281 7.78901 0.814129 7.49924 0.814129C7.20948 0.814129 6.92872 0.912281 6.70497 1.0918L0.113045 6.38498C0.081401 6.41048 0.0552207 6.44181 0.0359999 6.47718C0.0167791 6.51255 0.0048944 6.55127 0.00102498 6.59111C-0.00284445 6.63096 0.00137719 6.67117 0.0134487 6.70942C0.0255202 6.74768 0.045205 6.78325 0.0713783 6.81408L0.735441 7.60119C0.761543 7.63214 0.793648 7.65776 0.829919 7.67659C0.866191 7.69542 0.905915 7.7071 0.946819 7.71094C0.987723 7.71478 1.029 7.71073 1.0683 7.699C1.10759 7.68726 1.14412 7.66809 1.17581 7.64258L7.30133 2.7234C7.35776 2.67905 7.42806 2.65486 7.50055 2.65486C7.57303 2.65486 7.64333 2.67905 7.69976 2.7234L13.8255 7.64258C13.8572 7.6681 13.8937 7.68729 13.9329 7.69906C13.9721 7.71083 14.0134 7.71495 14.0542 7.71117C14.0951 7.7074 14.1348 7.69581 14.1711 7.67707C14.2074 7.65833 14.2395 7.63281 14.2656 7.60195L14.9297 6.81484C14.9559 6.78383 14.9755 6.74808 14.9874 6.70966C14.9993 6.67123 15.0033 6.63089 14.9992 6.59094C14.9951 6.55099 14.9829 6.51223 14.9634 6.47689C14.9439 6.44154 14.9174 6.41031 14.8854 6.38498Z" fill="#373737"/>
</svg>
