<svg width="33" height="33" viewBox="0 0 33 33" fill="none" xmlns="http://www.w3.org/2000/svg">
<circle cx="16.5" cy="16.5" r="16.5" fill="#4463D0"/>
<path fill-rule="evenodd" clip-rule="evenodd" d="M7.61539 9.17065C7.61539 8.75818 7.77924 8.3626 8.0709 8.07094C8.36257 7.77927 8.75814 7.61542 9.17062 7.61542H24.6738C24.8783 7.61509 25.0807 7.65507 25.2697 7.73309C25.4586 7.81111 25.6303 7.92563 25.7749 8.07009C25.9195 8.21455 26.0342 8.38612 26.1124 8.57497C26.1907 8.76382 26.2309 8.96624 26.2308 9.17065V24.6739C26.231 24.8783 26.1909 25.0808 26.1128 25.2698C26.0347 25.4587 25.9201 25.6304 25.7755 25.775C25.631 25.9196 25.4594 26.0343 25.2705 26.1125C25.0816 26.1907 24.8791 26.2309 24.6747 26.2308H9.17062C8.96631 26.2308 8.76401 26.1905 8.57526 26.1123C8.38652 26.0341 8.21503 25.9195 8.0706 25.775C7.92618 25.6305 7.81164 25.4589 7.73353 25.2701C7.65542 25.0814 7.61528 24.879 7.61539 24.6747V9.17065ZM14.9837 14.713H17.5044V15.9788C17.8682 15.2511 18.799 14.5962 20.1977 14.5962C22.8792 14.5962 23.5146 16.0456 23.5146 18.7051V23.6314H20.801V19.311C20.801 17.7963 20.4372 16.9417 19.5132 16.9417C18.2312 16.9417 17.6982 17.8632 17.6982 19.311V23.6314H14.9837V14.713ZM10.3298 23.5155H13.0443V14.5962H10.3298V23.5146V23.5155ZM13.4327 11.6871C13.4378 11.9195 13.3965 12.1506 13.311 12.3668C13.2256 12.5831 13.0979 12.78 12.9354 12.9462C12.7728 13.1124 12.5787 13.2444 12.3644 13.3346C12.1501 13.4247 11.92 13.4712 11.6875 13.4712C11.455 13.4712 11.2249 13.4247 11.0106 13.3346C10.7963 13.2444 10.6022 13.1124 10.4397 12.9462C10.2771 12.78 10.1494 12.5831 10.064 12.3668C9.97855 12.1506 9.93719 11.9195 9.94231 11.6871C9.95236 11.2309 10.1406 10.7968 10.4668 10.4777C10.793 10.1586 11.2312 9.97993 11.6875 9.97993C12.1438 9.97993 12.582 10.1586 12.9082 10.4777C13.2344 10.7968 13.4226 11.2309 13.4327 11.6871Z" fill="white"/>
</svg>
