<svg width="180" height="35" viewBox="0 0 180 35" fill="none" xmlns="http://www.w3.org/2000/svg">
<rect width="180" height="35" rx="7" fill="#161616"/>
<path d="M20.426 11.8993L21.2547 13.2386L14.0315 17.7344L21.2547 22.2717L20.3339 23.5488L12.5582 18.6169V16.8311L20.426 11.8993Z" fill="white"/>
<path d="M35.2123 9.9369L33.0638 24.2341H30.7311L29.1145 13.4463L27.4878 24.2341H25.1039L23.119 9.9369H24.8993L26.4032 22.2509L28.0914 11.5982H30.2707L31.877 22.2509L33.5651 9.9369H35.2123Z" fill="white"/>
<path d="M38.7034 19.3853C38.7375 20.2297 38.8978 20.9219 39.1843 21.4618C39.4708 21.9948 39.8493 22.3894 40.3199 22.6455C40.7906 22.8947 41.3021 23.0193 41.8546 23.0193C42.4071 23.0193 42.905 22.9362 43.3484 22.7701C43.7986 22.604 44.259 22.3582 44.7296 22.0329L45.5379 23.1854C45.0331 23.5869 44.4568 23.9018 43.8088 24.1302C43.1676 24.3587 42.5094 24.4729 41.8342 24.4729C40.7906 24.4729 39.9005 24.2341 39.1638 23.7564C38.4272 23.2788 37.8645 22.6143 37.4757 21.7629C37.0937 20.9046 36.9027 19.9113 36.9027 18.7831C36.9027 17.6756 37.0971 16.6927 37.4859 15.8343C37.8747 14.976 38.4204 14.3011 39.1229 13.8097C39.8254 13.3182 40.6542 13.0725 41.6091 13.0725C42.5163 13.0725 43.2972 13.2906 43.952 13.7266C44.6068 14.1558 45.1082 14.7718 45.456 15.5748C45.8107 16.3708 45.988 17.3226 45.988 18.4301C45.988 18.6169 45.9846 18.7935 45.9778 18.9596C45.971 19.1188 45.9608 19.2607 45.9471 19.3853H38.7034ZM41.6295 14.5053C40.8315 14.5053 40.1631 14.7926 39.6242 15.3671C39.0922 15.9416 38.7887 16.8311 38.7136 18.0355H44.3306C44.3101 16.8657 44.0578 15.9866 43.5735 15.3983C43.0892 14.803 42.4412 14.5053 41.6295 14.5053Z" fill="white"/>
<path d="M51.3412 14.7234C51.7368 14.1973 52.1904 13.7924 52.702 13.5086C53.2203 13.2179 53.7899 13.0725 54.4106 13.0725C55.3723 13.0725 56.1499 13.3079 56.7433 13.7785C57.3367 14.2492 57.7698 14.9137 58.0427 15.772C58.3155 16.6234 58.4519 17.6202 58.4519 18.7623C58.4519 19.8629 58.2882 20.8458 57.9608 21.711C57.6334 22.5693 57.1525 23.2442 56.5182 23.7357C55.8907 24.2271 55.1131 24.4729 54.1855 24.4729C52.9373 24.4729 51.9585 24.016 51.2491 23.1023L51.1264 24.2341H49.6224V8.89862L51.3412 8.68058V14.7234ZM53.7762 23.0608C54.6766 23.0608 55.3689 22.7078 55.8532 22.0017C56.3375 21.2957 56.5796 20.2124 56.5796 18.7519C56.5796 17.7967 56.4841 17.0041 56.2931 16.3743C56.1021 15.7374 55.8157 15.2633 55.4337 14.9518C55.0586 14.6334 54.5947 14.4742 54.0423 14.4742C53.442 14.4742 52.9134 14.6576 52.4564 15.0245C52.0062 15.3844 51.6345 15.7859 51.3412 16.2289V21.6487C51.6209 22.0779 51.9721 22.4205 52.395 22.6766C52.8247 22.9327 53.2851 23.0608 53.7762 23.0608Z" fill="white"/>
<path d="M64.1836 11.4113V16.2289H69.4016V17.7136H64.1836V22.7908H70.5884V24.2341H62.4034V9.9369H70.4042L70.1996 11.4113H64.1836Z" fill="white"/>
<path d="M75.2049 24.2341H73.2405L77.2205 18.4612L73.7316 13.3009H75.7676L78.264 17.371L80.7911 13.3009H82.7555L79.2769 18.3885L83.2466 24.2341H81.139L78.1924 19.541L75.2049 24.2341Z" fill="white"/>
<path d="M91.2497 13.0725C92.2046 13.0725 92.9651 13.3079 93.5313 13.7785C94.1042 14.2492 94.5169 14.9137 94.7692 15.772C95.0216 16.6234 95.1478 17.6202 95.1478 18.7623C95.1478 19.8629 94.9943 20.8458 94.6874 21.711C94.3873 22.5693 93.9303 23.2442 93.3164 23.7357C92.7025 24.2271 91.9284 24.4729 90.9939 24.4729C89.8139 24.4729 88.8658 24.0506 88.1496 23.2062V28.4183L86.4308 28.6364V13.3009H87.8939L88.0371 14.8272C88.4327 14.2665 88.9033 13.8339 89.449 13.5294C90.0015 13.2248 90.6017 13.0725 91.2497 13.0725ZM90.8404 14.4742C90.247 14.4742 89.7218 14.6576 89.2648 15.0245C88.8147 15.3844 88.4429 15.7859 88.1496 16.2289V21.6487C88.4293 22.071 88.7806 22.4067 89.2034 22.6559C89.6332 22.8981 90.1038 23.0193 90.6154 23.0193C91.5089 23.0193 92.1807 22.6732 92.6309 21.981C93.0811 21.2888 93.3062 20.2124 93.3062 18.7519C93.3062 17.7967 93.2175 17.0041 93.0402 16.3743C92.8628 15.7374 92.5934 15.2633 92.2319 14.9518C91.8704 14.6334 91.4066 14.4742 90.8404 14.4742Z" fill="white"/>
<path d="M100.051 19.3853C100.085 20.2297 100.245 20.9219 100.532 21.4618C100.818 21.9948 101.197 22.3894 101.667 22.6455C102.138 22.8947 102.65 23.0193 103.202 23.0193C103.754 23.0193 104.252 22.9362 104.696 22.7701C105.146 22.604 105.606 22.3582 106.077 22.0329L106.885 23.1854C106.381 23.5869 105.804 23.9018 105.156 24.1302C104.515 24.3587 103.857 24.4729 103.182 24.4729C102.138 24.4729 101.248 24.2341 100.511 23.7564C99.7745 23.2788 99.2118 22.6143 98.823 21.7629C98.4411 20.9046 98.2501 19.9113 98.2501 18.7831C98.2501 17.6756 98.4445 16.6927 98.8333 15.8343C99.2221 14.976 99.7677 14.3011 100.47 13.8097C101.173 13.3182 102.002 13.0725 102.956 13.0725C103.864 13.0725 104.645 13.2906 105.299 13.7266C105.954 14.1558 106.456 14.7718 106.803 15.5748C107.158 16.3708 107.335 17.3226 107.335 18.4301C107.335 18.6169 107.332 18.7935 107.325 18.9596C107.318 19.1188 107.308 19.2607 107.294 19.3853H100.051ZM102.977 14.5053C102.179 14.5053 101.51 14.7926 100.972 15.3671C100.44 15.9416 100.136 16.8311 100.061 18.0355H105.678C105.657 16.8657 105.405 15.9866 104.921 15.3983C104.437 14.803 103.789 14.5053 102.977 14.5053Z" fill="white"/>
<path d="M111.072 24.2341V22.8947H112.75V14.6403H111.072V13.3009H114.06L114.377 15.8863C114.793 14.9864 115.298 14.2908 115.891 13.7993C116.484 13.3079 117.269 13.0621 118.244 13.0621C118.544 13.0621 118.81 13.0864 119.042 13.1348C119.281 13.1763 119.523 13.2317 119.769 13.3009L119.267 14.8584C119.042 14.7961 118.838 14.7511 118.653 14.7234C118.469 14.6888 118.258 14.6715 118.019 14.6715C117.194 14.6715 116.484 14.9691 115.891 15.5644C115.298 16.1597 114.823 17.0595 114.469 18.2639V22.8947H116.658V24.2341H111.072ZM118.111 16.9972V14.6196L118.285 13.3009H119.769L119.523 16.9972H118.111Z" fill="white"/>
<path d="M131.793 23.6838C131.424 23.933 130.977 24.1268 130.452 24.2652C129.927 24.4036 129.412 24.4729 128.907 24.4729C127.748 24.4729 126.854 24.1648 126.227 23.5488C125.599 22.9327 125.285 22.1402 125.285 21.1711V14.6507H122.809V13.3009H125.285V10.8194L127.004 10.6118V13.3009H130.728L130.524 14.6507H127.004V21.1504C127.004 21.7595 127.161 22.2232 127.475 22.5417C127.796 22.8601 128.324 23.0193 129.061 23.0193C129.463 23.0193 129.835 22.9708 130.176 22.8739C130.517 22.777 130.834 22.6524 131.127 22.5001L131.793 23.6838Z" fill="white"/>
<path d="M139.171 23.0296C139.997 23.0296 140.648 22.8739 141.126 22.5624C141.61 22.244 141.852 21.8218 141.852 21.2957C141.852 20.9635 141.791 20.6762 141.668 20.4339C141.552 20.1917 141.31 19.9736 140.941 19.7798C140.573 19.586 140.007 19.3922 139.243 19.1984C138.5 19.0115 137.852 18.7969 137.299 18.5546C136.753 18.3055 136.327 17.9836 136.02 17.589C135.72 17.1945 135.57 16.6823 135.57 16.0524C135.57 15.4363 135.741 14.9068 136.082 14.4638C136.429 14.0139 136.91 13.6713 137.524 13.4359C138.138 13.1936 138.851 13.0725 139.663 13.0725C140.529 13.0725 141.283 13.1902 141.924 13.4255C142.572 13.654 143.121 13.9378 143.571 14.2769L142.814 15.4606C142.405 15.1768 141.954 14.9449 141.463 14.7649C140.972 14.578 140.379 14.4846 139.683 14.4846C138.837 14.4846 138.237 14.6196 137.882 14.8895C137.528 15.1525 137.35 15.4952 137.35 15.9174C137.35 16.2358 137.436 16.5023 137.606 16.7169C137.783 16.9245 138.08 17.1149 138.496 17.2879C138.912 17.4541 139.485 17.6375 140.215 17.8382C140.918 18.0251 141.528 18.2501 142.046 18.5131C142.572 18.7761 142.981 19.1222 143.274 19.5514C143.567 19.9806 143.714 20.5343 143.714 21.2127C143.714 21.9879 143.496 22.6178 143.059 23.1023C142.623 23.5799 142.057 23.9295 141.361 24.151C140.672 24.3656 139.942 24.4729 139.171 24.4729C138.196 24.4729 137.364 24.331 136.675 24.0472C135.993 23.7564 135.42 23.4069 134.956 22.9985L135.938 21.846C136.361 22.199 136.846 22.4863 137.391 22.7078C137.944 22.9224 138.537 23.0296 139.171 23.0296Z" fill="white"/>
<path d="M157.551 9.96805L168.488 16.8311V18.6169L160.723 23.5488L159.792 22.2613L167.015 17.7344L156.722 11.2867L157.551 9.96805ZM150.226 26.3729L148.834 25.7499L157.592 7.42426L158.963 8.10952L150.226 26.3729Z" fill="white"/>
</svg>
