<svg width="18" height="15" viewBox="0 0 18 15" fill="none" xmlns="http://www.w3.org/2000/svg">
<path d="M14.625 13.75H11.6719C11.4398 13.75 11.25 13.5602 11.25 13.3281V11.9219C11.25 11.6898 11.4398 11.5 11.6719 11.5H14.625C15.2473 11.5 15.75 10.9973 15.75 10.375V3.625C15.75 3.00273 15.2473 2.5 14.625 2.5H11.6719C11.4398 2.5 11.25 2.31016 11.25 2.07813V0.671875C11.25 0.439844 11.4398 0.25 11.6719 0.25H14.625C16.4883 0.25 18 1.76172 18 3.625V10.375C18 12.2383 16.4883 13.75 14.625 13.75ZM12.9727 6.68359L7.06641 0.777344C6.53906 0.25 5.625 0.619141 5.625 1.375V4.75H0.84375C0.376172 4.75 0 5.12617 0 5.59375V8.96875C0 9.43633 0.376172 9.8125 0.84375 9.8125H5.625V13.1875C5.625 13.9434 6.53906 14.3125 7.06641 13.7852L12.9727 7.87891C13.2996 7.54844 13.2996 7.01406 12.9727 6.68359Z" fill="white"/>
</svg>
